<svg width="167" height="54" viewBox="0 0 167 54" fill="none" xmlns="http://www.w3.org/2000/svg">
<path d="M72.0117 54H57.3887L68.8652 0L83.4882 0.00413788L72.0117 54Z" fill="white"/>
<path d="M47.2641 53.9959L32.6411 54L44.1218 0H58.7448L47.2641 53.9959Z" fill="white"/>
<path d="M29.2143 22.5017L16.8394 22.4976L19.4725 10.1268H31.8433L29.2143 22.5017Z" fill="white"/>
<path d="M24.6657 43.8733H12.2949L14.9239 31.4984H27.2988L24.6657 43.8733Z" fill="white"/>
<path d="M91.4351 18.4775H105.098V22.4893H96.0803V25.0687H104.253V28.7948H96.0803V31.4983H105.23V35.5101H91.4351V18.4775Z" fill="white"/>
<path d="M107.764 18.4775H112.505V35.5101H107.76L107.764 18.4775Z" fill="white"/>
<path d="M124.308 35.8496C123.05 35.8662 121.801 35.6486 120.623 35.2079C119.533 34.802 118.534 34.1843 117.684 33.3904C116.855 32.604 116.194 31.6575 115.742 30.6082C115.26 29.4838 115.021 28.2707 115.038 27.0477V26.9939C115.029 25.8027 115.263 24.6223 115.725 23.5244C116.171 22.4698 116.817 21.5111 117.626 20.7008C118.455 19.8837 119.44 19.2429 120.524 18.8171C121.687 18.3556 122.928 18.125 124.179 18.1381C125.512 18.1072 126.839 18.3306 128.088 18.7964C129.183 19.2339 130.197 19.851 131.089 20.6222L128.324 23.955C127.757 23.4661 127.121 23.0643 126.436 22.7626C125.731 22.4734 124.974 22.3325 124.213 22.3486C123.621 22.343 123.034 22.4659 122.494 22.7088C121.976 22.9488 121.509 23.2877 121.12 23.7066C120.297 24.6123 119.844 25.7947 119.853 27.0187V27.0684C119.849 27.7159 119.964 28.3588 120.192 28.9646C120.406 29.5255 120.737 30.0348 121.161 30.4592C121.581 30.8759 122.077 31.2076 122.623 31.4362C123.37 31.7162 124.169 31.8294 124.964 31.7679C125.759 31.7064 126.532 31.4717 127.227 31.0802V29.0101H123.869V25.5572H131.706V33.2248C130.735 34.0062 129.652 34.6383 128.493 35.1003C127.16 35.6204 125.739 35.875 124.308 35.8496Z" fill="white"/>
<path d="M134.333 18.4774H139.056V24.845H145.113V18.4691H149.854V35.5017H145.134V29.0348H139.052V35.5058H134.333V18.4774Z" fill="white"/>
<path d="M157.011 22.5059H151.923V18.49H166.827V22.5101H161.731V35.5143H157.007L157.011 22.5059Z" fill="white"/>
</svg>
