<svg width="152" height="100" viewBox="0 0 152 100" fill="none" xmlns="http://www.w3.org/2000/svg">
<g clip-path="url(#clip0_3108_7151)">
<path d="M40.4691 83.651H30.9932V82.2332H40.4691V83.651Z" fill="white"/>
<path d="M6.86893 80.8881V74.9467H2.85167V80.8881H0.593262V67.4941H2.85167V72.9265H6.86893V67.4941H9.12213V80.8881H6.86893V80.8881Z" fill="white"/>
<path d="M27.1582 80.8881L23.3491 71.4308H23.2918L23.3283 80.8881H21.2832V67.4941H23.8798L27.6525 77.0085H27.7098L27.689 67.4941H29.6612V80.8881H27.1582Z" fill="white"/>
<path d="M16.8133 67.4941H13.9877L11.7397 76.484L9.85596 77.1176L10.444 78.873L11.2037 78.6185L10.6365 80.8933H12.7024L13.4569 77.8655L17.0319 76.671L18.0882 80.8933H20.1541L16.8081 67.4993L16.8133 67.4941ZM13.9981 75.7258L15.3355 70.3765H15.4708L16.5895 74.8585L13.9981 75.7258V75.7258Z" fill="white"/>
<path d="M50.3249 78.1304C50.174 78.7484 49.9294 79.2885 49.586 79.7456C49.2425 80.2078 48.8054 80.5661 48.2694 80.831C47.7334 81.0959 47.0778 81.2257 46.3076 81.2257C45.5375 81.2257 44.887 81.0959 44.3562 80.831C43.8255 80.5661 43.3936 80.2026 43.0553 79.7456C42.7223 79.2833 42.4777 78.7484 42.3372 78.1304C42.1915 77.5124 42.1187 76.8528 42.1187 76.1465V67.4994H44.3927V75.9388C44.3927 76.3542 44.4187 76.7541 44.4759 77.1384C44.5332 77.5228 44.632 77.8603 44.7777 78.1512C44.9234 78.442 45.1212 78.6705 45.3762 78.8419C45.6311 79.0133 45.9486 79.0964 46.3441 79.0964C46.7395 79.0964 47.057 79.0133 47.3119 78.8419C47.5669 78.6705 47.7647 78.442 47.9104 78.1512C48.0561 77.8603 48.1549 77.5228 48.2122 77.1384C48.2694 76.7541 48.2954 76.3542 48.2954 75.9388V67.4994H50.5539V76.1465C50.5539 76.8528 50.4758 77.5176 50.3249 78.1304V78.1304Z" fill="white"/>
<path d="M58.7446 80.8881L54.9355 71.4308H54.8783L54.9147 80.8881H52.8696V67.4941H55.4663L59.239 77.0085H59.2962L59.2754 67.4941H61.2476V80.8881H58.7446V80.8881Z" fill="white"/>
<path d="M63.6621 80.8881V67.4941H65.9361V80.8881H63.6621Z" fill="white"/>
<path d="M73.4244 80.8881H70.5415L67.2632 67.4941H69.8026L72.0402 78.2394H72.0974L74.335 67.4941H76.7599L73.4244 80.8881V80.8881Z" fill="white"/>
<path d="M78.0918 80.8881V67.4941H84.1021V69.4988H80.2721V73.0563H83.8159V74.9104H80.2721V78.8626H84.2894V80.8881H78.0918V80.8881Z" fill="white"/>
<path d="M91.6059 80.8881L89.5192 75.1753H88.2495V80.8881H86.0483V67.4941H89.8783C90.4351 67.4941 90.945 67.5668 91.4134 67.7123C91.8817 67.8577 92.2824 68.0862 92.6154 68.403C92.9484 68.7198 93.2138 69.1145 93.4012 69.5975C93.5885 70.0753 93.6874 70.6518 93.6874 71.3165C93.6874 71.8359 93.6197 72.2929 93.4896 72.6876C93.3595 73.0823 93.1878 73.4199 92.9849 73.7003C92.7819 73.9756 92.5582 74.2041 92.3136 74.3703C92.069 74.5417 91.8245 74.6559 91.5851 74.7182L93.9944 80.8881H91.6059V80.8881ZM91.455 71.4308C91.455 71.0257 91.3977 70.6933 91.2833 70.4284C91.1688 70.1636 91.0231 69.9558 90.8357 69.8052C90.6536 69.6546 90.4455 69.5455 90.2217 69.4832C89.9927 69.4209 89.769 69.3897 89.54 69.3897H88.2495V73.5134H89.54C90.0968 73.5134 90.5548 73.342 90.9138 72.994C91.2729 72.646 91.455 72.1267 91.455 71.4308V71.4308Z" fill="white"/>
<path d="M101.118 70.0857C100.624 69.4936 100.005 69.1976 99.2606 69.1976C99.0472 69.1976 98.8391 69.234 98.6361 69.3015C98.4332 69.369 98.2511 69.4832 98.0845 69.6339C97.918 69.7845 97.7931 69.9818 97.6943 70.2207C97.6006 70.4596 97.5538 70.7453 97.5538 71.0724C97.5538 71.6385 97.7255 72.08 98.0637 72.3864C98.4072 72.698 98.8547 72.9888 99.4115 73.2641C99.7393 73.4303 100.072 73.6172 100.416 73.8302C100.759 74.0431 101.066 74.3028 101.347 74.604C101.623 74.9052 101.852 75.2636 102.029 75.6842C102.206 76.0997 102.294 76.5931 102.294 77.1592C102.294 77.8135 102.19 78.3952 101.982 78.899C101.774 79.4027 101.493 79.8286 101.15 80.1766C100.806 80.5245 100.395 80.7842 99.9267 80.9608C99.4583 81.1374 98.964 81.2256 98.4488 81.2256C97.7047 81.2256 97.0126 81.0802 96.3829 80.7894C95.7533 80.4986 95.2433 80.135 94.8687 79.6936L96.1019 78.0265C96.3933 78.3796 96.742 78.6549 97.1531 78.8574C97.5642 79.06 97.9857 79.1586 98.4124 79.1586C98.8911 79.1586 99.2918 78.9925 99.604 78.6653C99.9215 78.3381 100.078 77.8759 100.078 77.2838C100.078 76.6918 99.8902 76.2451 99.5104 75.9023C99.1305 75.5596 98.6517 75.248 98.0689 74.9571C97.7047 74.7806 97.356 74.5832 97.0334 74.3703C96.7108 74.1573 96.4246 73.9029 96.18 73.6017C95.9354 73.3056 95.7377 72.9577 95.592 72.563C95.4463 72.1631 95.3734 71.6905 95.3734 71.1348C95.3734 70.4388 95.4827 69.8468 95.7064 69.3482C95.925 68.8496 96.2164 68.4394 96.5807 68.107C96.9397 67.7798 97.3508 67.5357 97.8035 67.3799C98.2563 67.2241 98.7194 67.141 99.1877 67.141C99.8694 67.141 100.478 67.2501 101.019 67.4734C101.555 67.6967 102.008 68.0187 102.372 68.4497L101.124 70.0753L101.118 70.0857Z" fill="white"/>
<path d="M104.032 80.8881V67.4941H106.306V80.8881H104.032Z" fill="white"/>
<path d="M112.353 69.4261V80.8933H110.116V69.4261H107.597V67.4941H114.877V69.4261H112.353Z" fill="white"/>
<path d="M121.101 75.7621V80.8881H118.863V75.7621L115.507 67.4941H117.973L119.982 73.4718L120.039 73.4354L122.084 67.4941H124.494L121.101 75.7621V75.7621Z" fill="white"/>
<path d="M9.66848 92.9421C9.66848 94.0016 9.5592 94.9623 9.33545 95.8296C9.11169 96.6918 8.79426 97.4344 8.37796 98.0524C7.96167 98.6705 7.4517 99.1483 6.85328 99.491C6.25485 99.8338 5.57837 100 4.83424 100C4.09011 100 3.39802 99.8286 2.8048 99.491C2.21157 99.1483 1.70682 98.6705 1.29052 98.0524C0.874222 97.4344 0.556796 96.6918 0.333037 95.8296C0.109278 94.9675 0 94.0016 0 92.9421C0 91.8826 0.109278 90.9218 0.32263 90.0649C0.535982 89.208 0.853408 88.4705 1.2697 87.8525C1.686 87.2345 2.19596 86.7567 2.79439 86.4243C3.39282 86.0919 4.0745 85.9205 4.83424 85.9205C5.59398 85.9205 6.25485 86.0867 6.85328 86.4243C7.4517 86.7567 7.96167 87.2345 8.37796 87.8525C8.79426 88.4705 9.11169 89.208 9.33545 90.0649C9.554 90.9218 9.66848 91.8826 9.66848 92.9421ZM7.31641 92.9421C7.31641 92.2617 7.26437 91.6229 7.15509 91.0205C7.04582 90.4233 6.8897 89.9039 6.68156 89.4677C6.47341 89.0314 6.21322 88.6886 5.9062 88.4342C5.59398 88.1797 5.24013 88.055 4.83424 88.055C4.42835 88.055 4.05369 88.1797 3.74667 88.4342C3.43444 88.6886 3.17946 89.0314 2.97132 89.4677C2.76317 89.9039 2.60706 90.4181 2.50819 91.0205C2.40932 91.6177 2.35728 92.2617 2.35728 92.9421C2.35728 93.6224 2.40932 94.2612 2.50819 94.8637C2.60706 95.4609 2.76317 95.9854 2.97132 96.4269C3.17946 96.8683 3.43965 97.2163 3.74667 97.4656C4.05369 97.7201 4.41794 97.8447 4.83424 97.8447C5.25054 97.8447 5.6148 97.7201 5.92182 97.4656C6.22883 97.2111 6.48902 96.8683 6.69717 96.4269C6.90532 95.9854 7.06143 95.4661 7.1603 94.8637C7.25917 94.2664 7.3112 93.6224 7.3112 92.9421H7.31641Z" fill="white"/>
<path d="M13.8575 88.3096V91.9814H17.3076V93.9133H13.8783V99.6625H11.5835V86.2686H17.5938V88.3096H13.8575V88.3096Z" fill="white"/>
<path d="M29.38 99.6572L28.7192 96.8216H25.1911L24.5094 99.6572H22.2354L25.5709 86.2633H28.4694L31.7477 99.6572H29.38ZM27.0124 88.403H26.9343L25.4773 95.0454H28.433L27.0124 88.403V88.403Z" fill="white"/>
<path d="M40.5575 90.2208C40.5575 90.9011 40.4534 91.4984 40.2452 92.0073C40.0371 92.5163 39.7613 92.9421 39.4231 93.2849C39.0848 93.6277 38.6945 93.877 38.2522 94.0432C37.8099 94.2094 37.3572 94.2873 36.8941 94.2873H35.3069V99.6625H33.0693V86.2686H36.7744C37.2011 86.2686 37.6434 86.3309 38.0961 86.4555C38.5488 86.5802 38.9547 86.7983 39.3138 87.1099C39.6728 87.4215 39.9694 87.8266 40.2036 88.3304C40.4378 88.8341 40.5523 89.4677 40.5523 90.2208H40.5575ZM38.4135 90.2519C38.4135 89.5352 38.2418 89.0159 37.9036 88.6887C37.5601 88.3615 37.1282 88.2005 36.5974 88.2005H35.3069V92.4384H36.5974C37.1282 92.4384 37.5653 92.2514 37.9036 91.8827C38.247 91.5139 38.4135 90.9686 38.4135 90.2519V90.2519Z" fill="white"/>
<path d="M49.5912 90.2208C49.5912 90.9011 49.4871 91.4984 49.2789 92.0073C49.0708 92.5163 48.795 92.9421 48.4567 93.2849C48.1185 93.6277 47.7282 93.877 47.2859 94.0432C46.8436 94.2094 46.3909 94.2873 45.9277 94.2873H44.3406V99.6625H42.103V86.2686H45.8081C46.2348 86.2686 46.6771 86.3309 47.1298 86.4555C47.5825 86.5802 47.9884 86.7983 48.3475 87.1099C48.7065 87.4215 49.0031 87.8266 49.2373 88.3304C49.4715 88.8341 49.586 89.4677 49.586 90.2208H49.5912ZM47.4472 90.2519C47.4472 89.5352 47.2755 89.0159 46.9373 88.6887C46.5938 88.3615 46.1619 88.2005 45.6311 88.2005H44.3406V92.4384H45.6311C46.1619 92.4384 46.599 92.2514 46.9373 91.8827C47.2807 91.5139 47.4472 90.9686 47.4472 90.2519V90.2519Z" fill="white"/>
<path d="M51.1318 99.6572V86.2633H53.4267V97.5591H57.1213V99.6572H51.1318V99.6572Z" fill="white"/>
<path d="M58.479 99.6572V86.2633H60.753V99.6572H58.479Z" fill="white"/>
<path d="M63.168 99.6572V86.2633H69.1782V88.268H65.3483V91.8255H68.892V93.6796H65.3483V97.6318H69.3656V99.6572H63.168V99.6572Z" fill="white"/>
<path d="M79.7518 92.9784C79.7518 95.0974 79.3043 96.7385 78.4144 97.907C77.5246 99.0756 76.2133 99.6572 74.4804 99.6572H71.124V86.2633H74.496C76.2133 86.2633 77.5194 86.8554 78.4092 88.0343C79.299 89.2132 79.7466 90.8647 79.7466 92.9836L79.7518 92.9784ZM77.4777 92.9784C77.4777 92.1838 77.4049 91.4879 77.2592 90.8959C77.1135 90.3038 76.9105 89.8104 76.6452 89.4209C76.3798 89.0314 76.0623 88.7354 75.6981 88.5432C75.3338 88.3459 74.9331 88.2524 74.5012 88.2524H73.4189V97.6733H74.5012C74.9331 97.6733 75.3286 97.5746 75.6981 97.3825C76.0623 97.1851 76.3798 96.8943 76.6452 96.5048C76.9105 96.1153 77.1135 95.6271 77.2592 95.0402C77.4049 94.4534 77.4777 93.7678 77.4777 92.9888V92.9784Z" fill="white"/>
<path d="M91.2575 88.8548C90.7631 88.2628 90.1439 87.9668 89.3997 87.9668C89.1864 87.9668 88.9782 88.0031 88.7753 88.0706C88.5724 88.1382 88.3902 88.2524 88.2237 88.403C88.0572 88.5536 87.9323 88.751 87.8334 88.9899C87.7398 89.2288 87.6929 89.5144 87.6929 89.8416C87.6929 90.4077 87.8646 90.8491 88.2029 91.1556C88.5463 91.4672 88.9938 91.758 89.5506 92.0332C89.8785 92.1994 90.2115 92.3864 90.555 92.5993C90.8984 92.8123 91.2054 93.0719 91.4864 93.3732C91.7622 93.6744 91.9912 94.0327 92.1681 94.4534C92.345 94.8689 92.4335 95.3623 92.4335 95.9283C92.4335 96.5827 92.3294 97.1644 92.1213 97.6681C91.9131 98.1719 91.6321 98.5978 91.2887 98.9457C90.94 99.2937 90.5341 99.5534 90.0658 99.7299C89.5975 99.9065 89.1031 99.9948 88.588 99.9948C87.8438 99.9948 87.1517 99.8494 86.5221 99.5586C85.8924 99.2677 85.3825 98.9042 85.0078 98.4627L86.2411 96.7956C86.5325 97.1488 86.8811 97.424 87.2922 97.6266C87.7033 97.8291 88.1248 97.9278 88.5515 97.9278C89.0303 97.9278 89.431 97.7616 89.7484 97.4344C90.0658 97.1072 90.2219 96.645 90.2219 96.053C90.2219 95.4609 90.0346 95.0143 89.6547 94.6715C89.2748 94.3287 88.7961 94.0171 88.2133 93.7263C87.849 93.5497 87.5004 93.3524 87.1778 93.1394C86.8551 92.9265 86.5689 92.672 86.3243 92.3708C86.0798 92.0748 85.882 91.7268 85.7363 91.3321C85.5906 90.9322 85.5178 90.4596 85.5178 89.9039C85.5178 89.208 85.6271 88.6159 85.8508 88.1174C86.0694 87.6188 86.3608 87.2085 86.725 86.8761C87.0841 86.549 87.4952 86.3049 87.9479 86.1491C88.4006 85.9933 88.8638 85.9102 89.3321 85.9102C90.0138 85.9102 90.6226 86.0192 91.1638 86.2425C91.6998 86.4659 92.1525 86.7879 92.5168 87.2189L91.2679 88.8445L91.2575 88.8548Z" fill="white"/>
<path d="M100.718 99.5067C100.166 99.8339 99.4739 100 98.6413 100C97.8815 100 97.1998 99.8235 96.5858 99.4703C95.9718 99.1172 95.4566 98.629 95.0299 98.0058C94.6084 97.3826 94.2754 96.6399 94.0464 95.783C93.8122 94.926 93.6978 93.986 93.6978 92.9629C93.6978 91.9398 93.8122 90.9998 94.0464 90.1325C94.2806 89.2704 94.6136 88.5225 95.0403 87.8993C95.4722 87.2761 95.9926 86.7879 96.6066 86.4451C97.2207 86.0972 97.8971 85.9258 98.6465 85.9258C99.3958 85.9258 100.093 86.066 100.676 86.3516C101.259 86.6373 101.732 87.0424 102.097 87.5721L100.79 89.1613C100.27 88.4186 99.604 88.0447 98.7818 88.0447C98.3291 88.0447 97.9284 88.1745 97.5901 88.4342C97.2467 88.6939 96.9657 89.0419 96.7367 89.4833C96.5078 89.9247 96.3412 90.4441 96.2268 91.0465C96.1123 91.6438 96.055 92.2878 96.055 92.9681C96.055 93.6484 96.1123 94.2717 96.2268 94.8689C96.3412 95.4662 96.513 95.9907 96.7367 96.4321C96.9657 96.8736 97.2519 97.2215 97.6005 97.4812C97.9492 97.7409 98.3551 97.8707 98.8234 97.8707C99.2657 97.8707 99.6456 97.7565 99.9682 97.528C100.291 97.2994 100.561 97.0242 100.775 96.697L102.081 98.2291C101.727 98.7588 101.274 99.1899 100.728 99.5171L100.718 99.5067Z" fill="white"/>
<path d="M103.507 99.6572V86.2633H105.781V99.6572H103.507Z" fill="white"/>
<path d="M108.201 99.6572V86.2633H114.211V88.268H110.381V91.8255H113.925V93.6796H110.381V97.6318H114.398V99.6572H108.201V99.6572Z" fill="white"/>
<path d="M122.032 99.6572L118.223 90.1999H118.166L118.202 99.6572H116.157V86.2633H118.754L122.527 95.7777H122.584L122.563 86.2633H124.535V99.6572H122.032Z" fill="white"/>
<path d="M133.454 99.5067C132.903 99.8339 132.211 100 131.378 100C130.618 100 129.937 99.8235 129.323 99.4703C128.709 99.1172 128.193 98.629 127.767 98.0058C127.345 97.3826 127.012 96.6399 126.783 95.783C126.549 94.926 126.435 93.986 126.435 92.9629C126.435 91.9398 126.549 90.9998 126.783 90.1325C127.017 89.2704 127.35 88.5225 127.777 87.8993C128.209 87.2761 128.729 86.7879 129.343 86.4451C129.957 86.0972 130.634 85.9258 131.383 85.9258C132.133 85.9258 132.83 86.066 133.413 86.3516C133.996 86.6373 134.469 87.0424 134.833 87.5721L133.527 89.1613C133.007 88.4186 132.341 88.0447 131.519 88.0447C131.066 88.0447 130.665 88.1745 130.327 88.4342C129.983 88.6939 129.702 89.0419 129.474 89.4833C129.245 89.9247 129.078 90.4441 128.964 91.0465C128.849 91.6438 128.792 92.2878 128.792 92.9681C128.792 93.6484 128.849 94.2717 128.964 94.8689C129.078 95.4662 129.25 95.9907 129.474 96.4321C129.702 96.8736 129.989 97.2215 130.337 97.4812C130.686 97.7409 131.092 97.8707 131.56 97.8707C132.003 97.8707 132.382 97.7565 132.705 97.528C133.028 97.2994 133.298 97.0242 133.512 96.697L134.818 98.2291C134.464 98.7588 134.011 99.1899 133.465 99.5171L133.454 99.5067Z" fill="white"/>
<path d="M136.243 99.6572V86.2633H142.253V88.268H138.424V91.8255H141.967V93.6796H138.424V97.6318H142.441V99.6572H136.243V99.6572Z" fill="white"/>
<path d="M149.882 88.8548C149.388 88.2628 148.769 87.9668 148.025 87.9668C147.811 87.9668 147.603 88.0031 147.4 88.0706C147.197 88.1382 147.015 88.2524 146.849 88.403C146.682 88.5536 146.557 88.751 146.458 88.9899C146.365 89.2288 146.318 89.5144 146.318 89.8416C146.318 90.4077 146.49 90.8491 146.828 91.1556C147.171 91.4672 147.619 91.758 148.176 92.0332C148.503 92.1994 148.837 92.3864 149.18 92.5993C149.523 92.8123 149.83 93.0719 150.111 93.3732C150.387 93.6744 150.616 94.0327 150.793 94.4534C150.97 94.8689 151.059 95.3623 151.059 95.9283C151.059 96.5827 150.954 97.1644 150.746 97.6681C150.538 98.1719 150.257 98.5978 149.914 98.9457C149.565 99.2937 149.159 99.5534 148.691 99.7299C148.222 99.9065 147.728 99.9948 147.213 99.9948C146.469 99.9948 145.777 99.8494 145.147 99.5586C144.517 99.2677 144.007 98.9042 143.633 98.4627L144.866 96.7956C145.158 97.1488 145.506 97.424 145.917 97.6266C146.328 97.8291 146.75 97.9278 147.177 97.9278C147.655 97.9278 148.056 97.7616 148.373 97.4344C148.691 97.1072 148.847 96.645 148.847 96.053C148.847 95.4609 148.66 95.0143 148.28 94.6715C147.9 94.3287 147.421 94.0171 146.838 93.7263C146.474 93.5497 146.125 93.3524 145.803 93.1394C145.48 92.9265 145.194 92.672 144.949 92.3708C144.705 92.0748 144.507 91.7268 144.361 91.3321C144.216 90.9322 144.143 90.4596 144.143 89.9039C144.143 89.208 144.252 88.6159 144.476 88.1174C144.694 87.6188 144.986 87.2085 145.35 86.8761C145.709 86.549 146.12 86.3049 146.573 86.1491C147.026 85.9933 147.489 85.9102 147.957 85.9102C148.639 85.9102 149.248 86.0192 149.789 86.2425C150.325 86.4659 150.778 86.7879 151.142 87.2189L149.893 88.8445L149.882 88.8548Z" fill="white"/>
<path d="M138.46 -0.000116058L35.1836 33.4902L41.8955 54.1068L145.172 20.6164L138.46 -0.000116058Z" fill="white"/>
</g>
<defs>
<clipPath id="clip0_3108_7151">
<rect width="151.136" height="100" fill="white"/>
</clipPath>
</defs>
</svg>
