<svg width="104" height="104" viewBox="0 0 104 104" fill="none" xmlns="http://www.w3.org/2000/svg">
<g clip-path="url(#clip0_3108_7189)">
<path d="M57.248 83.4757C56.9701 83.4757 56.6588 83.4979 56.4253 83.5202V85.7438C56.4253 85.7438 56.9367 85.8105 57.248 85.8105C58.0041 85.8105 58.4043 85.2991 58.4043 84.5875C58.4043 83.9649 57.9707 83.4757 57.248 83.4757Z" fill="white"/>
<path d="M26.8948 83.5425C25.5384 83.5425 24.3599 84.5431 24.3599 86.2887C24.3599 88.0342 25.594 89.0238 26.8948 89.0238C28.2846 89.0238 29.4409 88.1343 29.4409 86.2998C29.4409 84.4653 28.3402 83.5425 26.8948 83.5425Z" fill="white"/>
<path d="M71.1235 72.3352C71.1235 74.1475 72.3577 75.0703 73.6585 75.0703C75.0372 75.0703 76.2046 74.1808 76.2046 72.3463C76.2046 70.5118 75.1039 69.589 73.6585 69.589C72.3021 69.589 71.1235 70.5896 71.1235 72.3352Z" fill="white"/>
<path d="M86.4777 0H17.5223C17.5223 0 0 0 0 17.5223V86.4888C0 86.4888 0 104.011 17.5223 104.011H104V17.5223C104 17.5223 104 0 86.4777 0ZM87.9897 72.1907C87.9897 74.8591 86.0552 76.6825 83.4868 76.6825C81.0964 76.6825 79.2063 74.9258 79.2063 72.4576C79.2063 69.9893 81.0631 67.9324 83.6203 67.9324C86.1775 67.9324 87.9897 69.6224 87.9897 72.1907ZM54.2459 11.9299L55.48 18.334C64.508 13.4086 72.8022 14.6538 74.0586 21.1469C74.3477 22.6145 74.2365 24.2266 73.814 25.8944C73.0468 28.8852 71.2234 32.065 68.6774 34.978C68.6774 34.978 68.6774 34.9891 68.6774 35.0002C69.678 37.0682 73.0579 37.2016 76.7158 35.1892C80.1625 33.288 82.7308 30.086 83.0977 27.4954C84.0205 33.9996 77.7498 43.0721 68.8441 47.9974C59.8384 52.9673 51.5219 51.811 50.1433 45.4402L50.1099 45.2735L48.2976 35.8452C49.3872 34.5555 50.3545 33.0768 51.0549 31.5202C53.034 27.1174 52.1779 23.8041 49.1315 24.1155C48.2309 24.2044 47.2525 24.6158 46.2519 25.2384L44.7064 17.1999L54.257 11.9299H54.2459ZM78.05 72.1907C78.05 74.8591 76.1266 76.6825 73.5583 76.6825C71.1567 76.6825 69.2777 74.9258 69.2777 72.4576C69.2777 69.9893 71.1345 67.9324 73.6917 67.9324C76.2489 67.9324 78.05 69.6224 78.05 72.1907ZM62.7958 72.9579V76.4935H61.0614V68.077H62.7958V71.3791H66.0979V68.077H67.8324V76.4935H66.0979V72.9579H62.7958ZM48.4088 73.158L47.2747 72.7911C45.607 72.2463 45.4291 71.4124 45.4291 70.2895C45.4291 69.2444 46.4965 67.9324 48.1976 67.9324C49.4873 67.9324 50.0765 68.1103 50.7881 68.6106L50.3767 70.4118C49.5985 69.7225 48.987 69.5335 48.2976 69.5335C47.6639 69.5335 47.208 69.8892 47.208 70.245C47.208 70.7009 47.4638 70.9455 48.0975 71.1567L49.1426 71.5014C50.7214 72.0128 51.0661 72.9134 51.0661 74.0808C51.0661 75.4039 49.7986 76.6269 48.142 76.6269C46.6299 76.6269 45.7738 76.1488 45.1734 75.8041L45.5403 74.003C46.1963 74.5367 47.3415 75.0481 48.0086 75.0481C48.7868 75.0481 49.2316 74.6923 49.2316 74.192C49.2316 73.6917 48.9536 73.3359 48.3755 73.158H48.4088ZM41.5044 18.9788L43.2166 27.8512C41.9602 29.241 40.8262 30.8976 40.0368 32.6543C38.0577 37.0571 38.9138 40.3703 41.9602 40.059C42.9942 39.9478 44.1394 39.4364 45.2957 38.6359L46.9523 47.208L28.1514 57.5814L22.7146 29.3521L41.5155 18.9677L41.5044 18.9788ZM43.3834 71.368V72.9023H40.3147V74.9814H43.9726V76.5046H38.5692V68.0881H43.6613V69.6113H40.3147V71.3791H43.3834V71.368ZM33.9329 75.1482C34.2998 75.1482 34.9335 75.1148 35.1892 74.9258V72.5132H36.8681V75.8486C36.301 76.2378 35.167 76.6269 33.755 76.6269C31.3534 76.6269 29.1298 75.5595 29.1298 72.313C29.1298 69.4556 31.0755 67.9547 33.6994 67.9547C35.0447 67.9547 35.9453 68.3327 36.3455 68.6329L35.8674 70.2784C35.4672 69.956 34.6222 69.5446 33.5993 69.5446C32.1762 69.5446 31.0199 70.4229 31.0199 72.313C31.0199 74.2031 32.1984 75.1371 33.9217 75.1371L33.9329 75.1482ZM23.604 67.9324C26.0723 67.9324 27.9624 69.6224 27.9624 72.1907C27.9624 74.759 26.0389 76.6825 23.4595 76.6825C21.0579 76.6825 19.179 74.9258 19.179 72.4576C19.179 69.9893 21.0357 67.9324 23.5929 67.9324H23.604ZM12.7193 76.4935H10.9848V68.077H12.7193V71.3791H16.0214V68.077H17.7558V76.4935H16.0214V72.9579H12.7193V76.4935ZM20.4131 90.4913L17.9893 87.1781H17.4668V90.4469H15.7323V82.0526C15.7323 82.0526 17.1999 81.9414 18.2117 81.9414C20.213 81.9414 21.1691 82.8865 21.1691 84.5208C21.1691 85.7772 20.4131 86.6 19.8238 86.889L22.281 90.1022L20.402 90.4802L20.4131 90.4913ZM26.8172 90.6359C24.4157 90.6359 22.5367 88.8792 22.5367 86.4109C22.5367 83.9427 24.3934 81.8858 26.9506 81.8858C29.5078 81.8858 31.309 83.5758 31.309 86.1552C31.309 88.7347 29.3855 90.647 26.8061 90.647L26.8172 90.6359ZM38.6692 83.6759H36.3122V90.4469H34.5777V83.6981H32.1984V82.0415H38.6804V83.6759H38.6692ZM46.3075 83.6759H43.9504V90.4469H42.216V83.6981H39.8255V82.0415H46.3075V83.6759ZM52.9673 90.4469H47.5638V82.0304H52.656V83.5536H49.3094V85.3214H52.378V86.8557H49.3094V88.9348H52.9673V90.458V90.4469ZM52.3224 72.4464C52.3224 69.8225 53.8345 67.9658 56.6141 67.9658C58.1484 67.9658 59.1379 68.6551 59.1379 68.6551L58.5598 70.3117C57.9594 69.8448 57.3923 69.6113 56.514 69.6113C55.0686 69.6113 54.1125 70.6564 54.1125 72.2574C54.1125 74.2142 55.5467 74.9258 56.7697 74.9258C57.737 74.9258 58.2373 74.7034 58.8266 74.2142L59.4159 75.7597C58.5375 76.4379 57.548 76.6269 56.514 76.6269C54.4238 76.6269 52.3224 75.5373 52.3224 72.4464ZM59.3936 90.4802L56.9699 87.167H56.4584V90.4357H54.724V82.0415C54.724 82.0415 56.1916 81.9303 57.2033 81.9303C59.2046 81.9303 60.1608 82.8754 60.1608 84.5097C60.1608 85.7661 59.4047 86.5888 58.8155 86.8779L61.2726 90.0911L59.3936 90.4691V90.4802ZM65.0417 90.5914C63.7964 90.5914 62.3733 90.4024 62.3733 90.4024V82.0304C62.3733 82.0304 63.9076 81.8747 65.1418 81.8747C68.4661 81.8747 69.7669 83.6536 69.7669 85.8773C69.7669 88.3122 68.5328 90.5914 65.0417 90.5914ZM76.3934 90.4691L75.5262 88.3566H72.591L71.7238 90.4469H69.9226L73.4693 82.0415H74.9592L78.2502 90.458H76.3934V90.4691ZM88.2566 90.4802L87.1114 85.6104L84.8877 90.4691H83.6536L81.4967 85.6104L80.4516 90.4691H78.7727L80.6183 82.1749H82.0526L84.3986 87.7674L86.9557 82.0526H88.2121L90.1911 90.458L88.2677 90.4802H88.2566ZM94.9275 76.4935H89.524V68.077H91.2585V74.9369H94.9275V76.4935Z" fill="white"/>
<path d="M23.5594 75.0592C24.9492 75.0592 26.1054 74.1697 26.1054 72.3352C26.1054 70.5007 25.0047 69.5779 23.5594 69.5779C22.2029 69.5779 21.0244 70.5785 21.0244 72.3241C21.0244 74.0696 22.2585 75.0592 23.5594 75.0592Z" fill="white"/>
<path d="M18.2675 83.4757C18.0006 83.4757 17.6782 83.4979 17.4336 83.5202V85.7438C17.4336 85.7438 17.945 85.8105 18.2675 85.8105C19.0235 85.8105 19.4126 85.2991 19.4126 84.5875C19.4126 83.9649 18.979 83.4757 18.2675 83.4757Z" fill="white"/>
<path d="M65.3198 83.4757C64.8751 83.4757 64.1079 83.5424 64.1079 83.5424V88.9681C64.3303 89.0459 64.775 89.1127 65.4087 89.1127C66.8986 89.1127 67.9437 87.7229 67.9437 86.1441C67.9437 84.3874 66.5539 83.4757 65.3198 83.4757Z" fill="white"/>
<path d="M83.5867 75.0592C84.9765 75.0592 86.1328 74.1697 86.1328 72.3352C86.1328 70.5007 85.0321 69.5779 83.5867 69.5779C82.2303 69.5779 81.0518 70.5785 81.0518 72.3241C81.0518 74.0696 82.2859 75.0592 83.5867 75.0592Z" fill="white"/>
<path d="M73.0024 87.0225H75.0704L74.0809 84.254L73.0024 87.0225Z" fill="white"/>
</g>
<defs>
<clipPath id="clip0_3108_7189">
<rect width="104" height="104" fill="white"/>
</clipPath>
</defs>
</svg>
